<svg width="20" height="20" viewBox="0 0 20 20" fill="none" xmlns="http://www.w3.org/2000/svg">
<rect x="6" y="1" width="8" height="2" fill="#747474"/>
<rect x="6" y="17" width="8" height="2" fill="#747474"/>
<rect x="3" y="6" width="8" height="2" transform="rotate(90 3 6)" fill="#747474"/>
<rect x="19" y="6" width="8" height="2" transform="rotate(90 19 6)" fill="#747474"/>
<rect x="2" y="5" width="2" height="2" fill="#747474"/>
<rect x="3" y="3" width="2" height="2" fill="#747474"/>
<rect x="5" y="2" width="2" height="2" fill="#747474"/>
<rect x="15" y="2" width="2" height="2" transform="rotate(90 15 2)" fill="#747474"/>
<rect x="17" y="3" width="2" height="2" transform="rotate(90 17 3)" fill="#747474"/>
<rect x="18" y="5" width="2" height="2" transform="rotate(90 18 5)" fill="#747474"/>
<rect x="18" y="15" width="2" height="2" transform="rotate(180 18 15)" fill="#747474"/>
<rect x="17" y="17" width="2" height="2" transform="rotate(180 17 17)" fill="#747474"/>
<rect x="15" y="18" width="2" height="2" transform="rotate(180 15 18)" fill="#747474"/>
<rect x="5" y="18" width="2" height="2" transform="rotate(-90 5 18)" fill="#747474"/>
<rect x="3" y="17" width="2" height="2" transform="rotate(-90 3 17)" fill="#747474"/>
<rect x="2" y="15" width="2" height="2" transform="rotate(-90 2 15)" fill="#747474"/>
<rect x="9" y="4" width="2" height="7" fill="#747474"/>
<rect x="10" y="10" width="2" height="2" fill="#747474"/>
<rect x="11" y="11" width="2" height="2" fill="#747474"/>
<rect x="12" y="12" width="2" height="2" fill="#747474"/>
</svg>
