<svg width="11" height="11" viewBox="0 0 11 11" fill="none" xmlns="http://www.w3.org/2000/svg">
<path d="M1 1C3.97 1 6.94 1 10 1C10 3.97 10 6.94 10 10C7.03 10 4.06 10 1 10C1 7.03 1 4.06 1 1ZM2 2C2 4.31 2 6.62 2 9C4.31 9 6.62 9 9 9C9 6.69 9 4.38 9 2C6.69 2 4.38 2 2 2Z" fill="black"/>
<rect x="5" y="5" width="1" height="1" fill="black"/>
<rect x="6" y="4" width="1" height="1" fill="black"/>
<rect x="7" y="3" width="1" height="1" fill="black"/>
<rect x="6" y="6" width="1" height="1" fill="black"/>
<rect x="7" y="7" width="1" height="1" fill="black"/>
<rect x="4" y="6" width="1" height="1" fill="black"/>
<rect x="3" y="7" width="1" height="1" fill="black"/>
<rect x="4" y="4" width="1" height="1" fill="black"/>
<rect x="3" y="3" width="1" height="1" fill="black"/>
</svg>
